<svg xmlns="http://www.w3.org/2000/svg" xmlns:xlink="http://www.w3.org/1999/xlink" version="1.1" width="218.87999" height="85.5" viewBox="0 0 218.87999 85.5">
<defs>
<clipPath id="clip_0">
<path transform="matrix(.24,0,0,.24,0,0)" d="M0 0H912.5V356.25H0Z" fill-rule="evenodd"/>
</clipPath>
<clipPath id="clip_1">
<path transform="matrix(.24,0,0,.24,0,0)" d="M0 0H912.5V356.25H0Z" fill-rule="evenodd"/>
</clipPath>
<path id="font_2_60" d="M.37402345 .34375C.3876953 .37109376 .4013672 .39827476 .41503907 .42529298 .42871095 .4523112 .44108073 .47753907 .45214845 .50097659 .46321617 .52441409 .47265626 .54541018 .48046876 .56396487 .48828126 .58251956 .49283854 .59733077 .49414063 .60839846 .49544273 .6201172 .49446617 .6302083 .49121095 .6386719 .48795573 .64713546 .48258464 .6539714 .47509767 .6591797 .4676107 .664388 .45882163 .66845706 .44873048 .6713867 .4386393 .6743164 .42740885 .67610678 .41503907 .6767578 .3935547 .6780599 .3680013 .6775716 .3383789 .67529299 .3087565 .67301437 .28027345 .66878256 .2529297 .66259768 .22558594 .6564128 .20198567 .64778646 .1821289 .63671877 .16227214 .62565109 .1516927 .6119792 .15039063 .5957031 .14973958 .58658859 .15136719 .5784505 .15527344 .57128909 .15852864 .5654297 .16455078 .5598958 .17333985 .5546875 .1821289 .5494792 .1953125 .54752609 .21289063 .5488281 .21614583 .5488281 .22005208 .5491536 .22460938 .5498047 .22851563 .55045577 .23339844 .55126956 .23925781 .5522461 .24511719 .55322268 .25195313 .5546875 .25976563 .5566406L.21191406 .4921875C.20279949 .47916667 .19303386 .47135417 .18261719 .46875 .17220052 .46614585 .16276042 .46549479 .15429688 .46679688 .14973958 .4674479 .14078777 .46972657 .1274414 .4736328 .114095058 .47753907 .100748699 .48339845 .087402347 .49121095 .07405599 .49902345 .0625 .50960287 .052734376 .5229492 .04296875 .5362956 .0390625 .5530599 .041015626 .5732422 .043619794 .5966797 .053710939 .61832687 .07128906 .6381836 .08886719 .65804037 .11344401 .6751302 .14501953 .6894531 .17659505 .70377609 .21435547 .71484377 .25830079 .72265627 .3022461 .73046877 .35188804 .734375 .40722657 .734375 .44889323 .734375 .48209635 .72998049 .50683596 .7211914 .5315755 .71240237 .5496419 .7010091 .56103518 .6870117 .5724284 .67301437 .5779622 .6567383 .5776367 .6381836 .5773112 .6196289 .5732422 .60058596 .5654297 .5810547 .56152346 .5719401 .55582687 .55940756 .54833987 .54345706 .54085287 .52750656 .53190109 .50895187 .5214844 .48779298 .5110677 .46663413 .5 .44335938 .48828126 .41796876 .4765625 .39257813 .46484376 .36621095 .453125 .3388672 .47070313 .3375651 .4868164 .3359375 .50146487 .33398438 .5161133 .33203126 .52766928 .33040367 .5361328 .32910157 .54589846 .3264974 .5491536 .32226563 .54589846 .31640626 .54003909 .3046875 .53434249 .29589845 .5288086 .29003907 .5232747 .2841797 .5172526 .2801107 .5107422 .27783204 .50423178 .27555339 .4970703 .2745768 .4892578 .27490235 .4814453 .27522788 .47265626 .27571617 .46289063 .2763672 .45703126 .2763672 .45117188 .27652995 .4453125 .27685548 .43945313 .277181 .43326823 .27766929 .4267578 .2783203 .41438804 .24902344 .4025065 .22005208 .39111329 .19140625 .37972007 .16276042 .36930339 .13557942 .35986329 .10986328 .3504232 .08414713 .3421224 .060546876 .33496095 .0390625 .32779948 .017578125 .32291667-.00032552085 .3203125-.0146484379 .31640626-.03483073 .31347657-.053710939 .31152345-.07128906 .31022135-.08626302 .3095703-.10188802 .3095703-.11816406 .3095703-.13444011 .31217448-.14746094 .3173828-.15722656 .30371095-.16113281 .29182945-.16438802 .28173829-.16699219 .27164714-.16959636 .26302085-.17154949 .25585938-.17285156 .24804688-.17480469 .24153646-.1764323 .23632813-.17773438 .21809896-.18229167 .20524089-.18180339 .1977539-.17626953 .19026692-.17073567 .18815105-.15755208 .19140625-.13671875 .19270833-.122395839 .19482422-.106282558 .1977539-.088378909 .2006836-.07047526 .20524089-.05029297 .21142578-.027832032 .21761067-.0053710939 .2257487 .01969401 .23583985 .04736328 .24593099 .075032558 .25878907 .10579427 .27441407 .13964844 .28352867 .15917969 .2939453 .18082683 .30566407 .20458985 .3173828 .22835286 .3297526 .25390626 .34277345 .28125 .3141276 .28125 .28320313 .27929688 .25 .27539063 .23177083 .27278648 .21386719 .26985679 .19628906 .26660157 .18131511 .26334635 .16520183 .25960288 .14794922 .2553711 .13069661 .2511393 .114583339 .24641927 .099609378 .24121094 .09765625 .24641927 .09651693 .2516276 .096191409 .25683595 .09586588 .26204429 .09602865 .2669271 .09667969 .27148438 .09733073 .27604167 .09830729 .28059898 .099609378 .28515626 .10091146 .28971354 .102864589 .29427085 .10546875 .29882813 .109375 .30664063 .1155599 .31640626 .12402344 .328125 .15462239 .33203126 .18391927 .33496095 .21191406 .33691407 .23990886 .3388672 .26464845 .34049479 .2861328 .34179688 .31152345 .34309898 .33528648 .34375 .35742188 .34375 .3606771 .34440104 .363444 .3445638 .36572267 .34423829 .3680013 .34391276 .37076823 .34375 .37402345 .34375Z"/>
<path id="font_2_104" d="M-.037109376 .0048828127C-.041666669-.0022786458-.04671224-.0069986979-.052246095-.009277344-.05777995-.011555989-.06266276-.011881511-.06689453-.010253906-.071126308-.008626302-.07389323-.0052083337-.07519531 0-.0764974 .0052083337-.07519531 .01171875-.07128906 .01953125-.06933594 .0234375-.064941409 .032226564-.05810547 .045898439-.05126953 .059570314-.04313151 .07600912-.033691408 .095214847-.024251303 .11442057-.0139973959 .1352539-.0029296876 .15771485 .0081380209 .18017578 .018717448 .20149739 .028808594 .22167969 .03889974 .24186199 .048177083 .25992839 .056640626 .2758789 .065104167 .29182945 .07128906 .3033854 .07519531 .31054688 .06803385 .31705729 .06315104 .32177735 .060546876 .32470704 .057942708 .32763673 .055989583 .33398438 .0546875 .34375 .053385419 .35221354 .055338544 .36328126 .060546876 .37695313 .06575521 .390625 .07259115 .4038086 .08105469 .4165039 .08951823 .42919923 .098958339 .44010417 .109375 .44921876 .119791667 .45833335 .12988281 .46289063 .13964844 .46289063 .15787761 .46289063 .17073567 .45703126 .17822266 .4453125 .18570964 .43359376 .19010417 .42154948 .19140625 .4091797 .19270833 .40071617 .1920573 .38997398 .18945313 .37695313 .18684896 .36393229 .18196614 .35221354 .17480469 .34179688 .17675781 .34049479 .17936199 .33902995 .18261719 .33740235 .18587239 .33577476 .19108074 .33496095 .19824219 .33496095 .20865886 .33496095 .21598308 .33561198 .22021485 .33691407 .22444661 .33821617 .2311198 .3388672 .24023438 .3388672 .2513021 .3388672 .26041667 .33610026 .26757813 .3305664 .2747396 .32503257 .28059898 .31819663 .28515626 .3100586 .28971354 .30192057 .2931315 .2931315 .29541017 .2836914 .2976888 .2742513 .29915367 .265625 .2998047 .2578125 .3017578 .24153646 .29752604 .22460938 .28710938 .20703125 .27669273 .18945313 .2639974 .17024739 .24902344 .14941406 .23990886 .13639324 .23079427 .12174479 .22167969 .10546875 .21256511 .08919271 .20865886 .07454427 .20996094 .061523439 .21126302 .053059896 .21354167 .046223958 .21679688 .041015626 .22005208 .035807294 .22916667 .033203126 .24414063 .033203126 .25520835 .033203126 .26741538 .037272138 .28076173 .045410158 .29410807 .053548177 .30777995 .063964847 .32177735 .076660159 .33577476 .08935547 .34960938 .10335287 .36328126 .118652347 .37695313 .13395183 .38964845 .14892578 .4013672 .16357422 .41308595 .17822266 .4230143 .19140625 .43115235 .203125 .43929038 .21484375 .4453125 .2233073 .44921876 .22851563 .45247398 .23372396 .45670573 .23730469 .46191407 .23925781 .4671224 .24121094 .4716797 .24121094 .47558595 .23925781 .4794922 .23730469 .4819336 .23339844 .48291017 .22753906 .48388673 .22167969 .4814453 .21386719 .47558595 .20410156 .4716797 .19759114 .4650065 .18717449 .4555664 .17285156 .4461263 .15852864 .43473307 .14257813 .42138673 .125 .40804038 .107421878 .39322917 .08935547 .37695313 .07080078 .3606771 .052246095 .34358726 .03531901 .3256836 .020019532 .30777995 .0047200524 .2898763-.0078125 .27197267-.017578125 .254069-.02734375 .23697917-.032226564 .22070313-.032226564 .20377605-.032226564 .18977864-.028971354 .17871094-.022460938 .16764324-.015950522 .1586914-.007975261 .15185547 .0014648438 .14501953 .010904948 .14013672 .021321616 .13720703 .032714845 .13427735 .044108076 .13313802 .0546875 .13378906 .064453128 .13444011 .072265628 .13655599 .080566409 .14013672 .08935547 .14371746 .09814453 .14794922 .10725912 .15283203 .11669922 .15771485 .12613933 .16292317 .13557942 .16845703 .14501953 .17399089 .15445964 .17903646 .16373699 .18359375 .17285156 .19466146 .19173177 .20361328 .20784505 .21044922 .2211914 .21728516 .23453777 .22070313 .24576824 .22070313 .2548828 .22070313 .2607422 .21940105 .26595054 .21679688 .2705078 .2141927 .2750651 .20996094 .27734376 .20410156 .27734376 .20019531 .27734376 .19742839 .277181 .19580078 .27685548 .19417317 .27652995 .19254558 .2763672 .19091797 .2763672 .18929036 .2763672 .18701172 .27620445 .18408203 .2758789 .18115235 .27555339 .17675781 .27539063 .17089844 .27539063 .16243489 .27539063 .15527344 .27669273 .14941406 .27929688 .14355469 .28190104 .13802083 .28385417 .1328125 .28515626 .13020833 .28059898 .12434896 .27083335 .115234378 .25585938 .10611979 .24088542 .09554037 .2233073 .083496097 .203125 .07145182 .1829427 .05875651 .16178386 .045410158 .13964844 .0320638 .11751302 .01953125 .096842449 .0078125 .07763672-.00390625 .05843099-.013834636 .04215495-.021972657 .028808594-.030110678 .015462239-.03515625 .007486979-.037109376 .0048828127Z"/>
<path id="font_2_91" d="M.4423828 .203125C.42285157 .17447917 .40071617 .14664714 .37597657 .119628909 .35123698 .09261068 .32503257 .06852213 .29736329 .04736328 .269694 .026204428 .2413737 .009114583 .21240235-.00390625 .18343099-.016927084 .15527344-.0234375 .12792969-.0234375 .11360677-.0234375 .09814453-.020019532 .08154297-.013183594 .064941409-.0063476564 .049804689 .004231771 .036132814 .018554688 .022460938 .032877607 .011555989 .051432294 .0034179688 .07421875-.0047200524 .09700521-.0071614587 .12467448-.00390625 .15722656-.0013020834 .18391927 .0069986979 .21207683 .020996094 .24169922 .03499349 .27132163 .052246095 .2985026 .072753909 .3232422 .09326172 .34798179 .116373699 .3684896 .14208985 .38476563 .16780599 .40104167 .19368489 .4091797 .21972656 .4091797 .24446614 .4091797 .26236979 .40299479 .2734375 .390625 .28450523 .37825523 .28938804 .36295573 .28808595 .34472657 .2861328 .32454429 .2804362 .3059896 .2709961 .2890625 .261556 .2721354 .25032554 .25683595 .23730469 .24316406 .22428386 .22949219 .21044922 .21712239 .19580078 .20605469 .18115235 .19498699 .1673177 .18489583 .15429688 .17578125 .13997396 .16601563 .12630208 .15673828 .11328125 .14794922 .100260417 .13916016 .08886719 .13118489 .07910156 .12402344 .0797526 .1077474 .08268229 .09407552 .087890628 .08300781 .09309896 .0719401 .099609378 .06298828 .107421878 .056152345 .115234378 .049316408 .124186199 .044433595 .13427735 .041503908 .14436849 .03857422 .15462239 .037109376 .16503906 .037109376 .18717449 .037109376 .21028646 .044108076 .234375 .05810547 .25846354 .07210287 .2820638 .089029949 .30517579 .10888672 .32828776 .12874349 .34977214 .14941406 .3696289 .17089844 .3894857 .19238281 .40592448 .2109375 .4189453 .2265625 .4235026 .23177083 .42822267 .23486328 .43310548 .23583985 .43798829 .2368164 .44189454 .23616536 .44482423 .23388672 .4477539 .23160808 .44921876 .22770183 .44921876 .22216797 .44921876 .21663411 .4469401 .21028646 .4423828 .203125M.19238281 .35351563C.18457031 .35351563 .17529297 .34960938 .16455078 .34179688 .1538086 .33398438 .14322917 .3227539 .1328125 .30810548 .122395839 .29345704 .11263021 .27555339 .103515628 .25439454 .09440104 .23323567 .0875651 .20898438 .08300781 .18164063 .09082031 .1875 .09928385 .19352214 .10839844 .19970703 .11751302 .20589192 .12662761 .21256511 .13574219 .21972656 .16373699 .24121094 .18326824 .26009117 .19433594 .2763672 .20540364 .29264323 .21158855 .30664063 .21289063 .31835938 .2141927 .33072917 .21289063 .339681 .20898438 .34521485 .20507813 .3507487 .19954427 .35351563 .19238281 .35351563Z"/>
<path id="font_2_105" d="M.13769531 .033203126C.14160156 .030598959 .14664714 .029296875 .15283203 .029296875 .15901692 .029296875 .16520183 .030598959 .17138672 .033203126 .17757161 .035807294 .18343099 .03938802 .18896485 .043945314 .1944987 .048502607 .1985677 .05436198 .20117188 .061523439 .20377605 .0686849 .20377605 .078938808 .20117188 .092285159 .1985677 .10563151 .1944987 .11995443 .18896485 .1352539 .18343099 .15055339 .17740886 .16601563 .17089844 .18164063 .16438802 .19726563 .15885417 .21158855 .15429688 .22460938 .15039063 .234375 .14713542 .24348958 .14453125 .25195313 .14192708 .2591146 .13948567 .26611329 .13720703 .27294923 .13492839 .27978517 .13313802 .28450523 .13183594 .28710938 .12858074 .28190104 .12288412 .2734375 .114746097 .26171876 .10660807 .25 .09781901 .23779297 .088378909 .22509766 .078938808 .21240235 .06998698 .2006836 .061523439 .1899414 .053059896 .17919922 .04720052 .171875 .043945314 .16796875 .03873698 .16210938 .033691408 .1586914 .028808594 .15771485 .023925782 .15673828 .019856772 .15771485 .016601563 .16064453 .0133463549 .16357422 .011555989 .16780599 .011230469 .17333985 .010904948 .1788737 .0133463549 .18554688 .018554688 .19335938 .022460938 .1985677 .028320313 .20686849 .036132814 .21826172 .043945314 .22965496 .051757814 .2413737 .059570314 .25341798 .06738281 .26546226 .07454427 .27620445 .08105469 .28564454 .0875651 .29508464 .091145839 .30078126 .091796878 .30273438 .09309896 .30794273 .091308597 .31477867 .08642578 .3232422 .08154297 .33170573 .080729167 .34147135 .083984378 .35253907 .08658854 .36165367 .092447917 .37223307 .1015625 .38427735 .110677089 .39632163 .12141927 .40722657 .13378906 .4169922 .14615886 .4267578 .15885417 .43408204 .171875 .43896485 .18489583 .44384767 .19661458 .4436849 .20703125 .43847657 .2154948 .43326823 .22233074 .42757163 .22753906 .42138673 .23274739 .4152018 .23470052 .40885417 .23339844 .40234376 .23209636 .39908854 .23014324 .39485679 .22753906 .38964845 .22493489 .3844401 .22102864 .37809245 .21582031 .37060548 .21061199 .3631185 .203125 .35351563 .19335938 .34179688 .1953125 .3268229 .19807942 .31315104 .20166016 .30078126 .20524089 .28841148 .20865886 .27766929 .21191406 .2685547 .21582031 .25748698 .22005208 .24739583 .22460938 .23828125 .23046875 .2265625 .23665364 .21451824 .24316406 .20214844 .24967449 .18977864 .25553385 .17757161 .2607422 .16552735 .26595054 .15348308 .27018229 .14225261 .2734375 .13183594 .27669273 .12141927 .27766929 .11263021 .2763672 .10546875 .27441407 .09440104 .26871745 .08105469 .25927735 .06542969 .24983724 .049804689 .23811849 .03466797 .2241211 .020019532 .2101237 .0053710939 .19417317-.0071614587 .17626953-.017578125 .15836589-.027994791 .13964844-.033203126 .12011719-.033203126 .10644531-.033203126 .09326172-.028971354 .080566409-.020507813 .067871097-.0120442709 .057128908-.0021158856 .048339845 .009277344 .03955078 .020670573 .033040365 .031901044 .028808594 .04296875 .024576823 .054036458 .024088541 .0625 .02734375 .068359378 .03125 .076171878 .03483073 .08235677 .038085939 .08691406 .041341146 .09147135 .046223958 .09667969 .052734376 .10253906 .055338544 .10449219 .05859375 .106770839 .0625 .109375 .06575521 .111328128 .0703125 .11328125 .076171878 .115234378 .08203125 .1171875 .08886719 .11946615 .09667969 .12207031 .1031901 .10188802 .10904948 .08610026 .11425781 .07470703 .11946615 .063313808 .123697917 .05436198 .12695313 .047851564 .13085938 .040690107 .13444011 .035807294 .13769531 .033203126Z"/>
<path id="font_2_94" d="M.50390627 .21484375C.50846359 .22005208 .5131836 .22281902 .5180664 .22314453 .5229492 .22347005 .52685549 .22216797 .52978518 .21923828 .53271487 .2163086 .5340169 .21191406 .5336914 .20605469 .5333659 .20019531 .53059896 .19368489 .5253906 .18652344 .5130208 .16959636 .4986979 .15218099 .48242188 .13427735 .46614585 .116373699 .44873048 .098958339 .43017579 .08203125 .4116211 .065104167 .39290367 .049153646 .37402345 .034179689 .35514323 .019205729 .33691407 .0068359377 .31933595-.0029296876 .2998047-.0139973959 .28336589-.01953125 .27001954-.01953125 .2566732-.01953125 .24348958-.011067708 .23046875 .005859375 .21875 .020833334 .21305339 .036946615 .2133789 .05419922 .21370442 .07145182 .21744792 .09309896 .22460938 .119140628 .22916667 .13541667 .23551433 .15478516 .24365235 .1772461 .25179038 .19970703 .25830079 .22135417 .2631836 .2421875 .2680664 .26302085 .26953126 .28076173 .26757813 .29541017 .265625 .3100586 .25716148 .3173828 .2421875 .3173828 .23177083 .3173828 .22054036 .3138021 .2084961 .30664063 .19645183 .29947917 .18440755 .2902018 .17236328 .2788086 .16031902 .26741538 .14876302 .25455729 .13769531 .24023438 .12662761 .22591146 .11686198 .21191406 .10839844 .19824219 .1031901 .17285156 .09798177 .14778646 .09277344 .123046878 .08821615 .10221354 .083496097 .079589847 .07861328 .05517578 .07373047 .030761719 .069010417 .009114583 .064453128-.009765625 .060546876-.013020833 .056315107-.0152994799 .051757814-.016601563 .04720052-.017903647 .04296875-.018554688 .0390625-.018554688 .034505208-.018554688 .029947916-.018229166 .025390625-.017578125 .020182291-.016276041 .0152994799-.014322917 .0107421879-.01171875 .0068359377-.009114583 .0029296876-.0056966149-.0009765625-.0014648438-.0048828127 .002766927-.0078125 .008463542-.009765625 .015625 .01953125 .1360677 .04264323 .23274739 .059570314 .30566407 .0764974 .37858073 .08951823 .43424479 .09863281 .47265626 .10904948 .5182292 .11621094 .5498047 .12011719 .5673828 .12207031 .5797526 .123697917 .5917969 .125 .6035156 .12630208 .6139323 .12695313 .6246745 .12695313 .6357422 .12695313 .6468099 .12597656 .65690109 .12402344 .6660156 .12923177 .6692708 .13492839 .671875 .14111328 .6738281 .14729817 .67578127 .15332031 .6774089 .15917969 .67871096 .16634114 .68066409 .17350261 .6822917 .18066406 .68359377 .18782552 .6848958 .19433594 .6855469 .20019531 .6855469 .20540364 .6855469 .21028646 .6850586 .21484375 .68408206 .21940105 .68310549 .22233074 .68098959 .22363281 .6777344 .22753906 .6744792 .22932942 .66796877 .2290039 .6582031 .22867839 .6484375 .22786458 .6383464 .2265625 .6279297 .22395833 .6155599 .22102864 .60221359 .21777344 .5878906 .20410156 .53515627 .18880208 .48388673 .171875 .43408204 .15494792 .38427735 .13932292 .3310547 .125 .27441407 .13346355 .2874349 .14355469 .30078126 .15527344 .31445313 .16699219 .328125 .17985027 .34065757 .19384766 .35205079 .20784505 .363444 .22265625 .37288413 .23828125 .3803711 .25390626 .38785807 .2705078 .39160157 .28808595 .39160157 .29720054 .39160157 .3058268 .39013673 .31396485 .38720704 .32210288 .38427735 .3292643 .37939454 .33544923 .3725586 .34163413 .36572267 .34635417 .35660807 .34960938 .34521485 .3528646 .33382163 .35416667 .31966148 .35351563 .30273438 .35351563 .29231773 .3523763 .28157554 .35009767 .2705078 .347819 .2594401 .34472657 .24723308 .3408203 .23388672 .33691407 .22054036 .3318685 .20572917 .3256836 .18945313 .3194987 .17317708 .31217448 .15429688 .30371095 .1328125 .29785157 .11783854 .29329429 .10514323 .29003907 .09472656 .28678385 .0843099 .2874349 .07519531 .2919922 .06738281 .29785157 .056966146 .30940757 .05452474 .32666017 .060058595 .34391276 .065592449 .36979167 .08235677 .40429688 .11035156 .41210938 .11686198 .42089845 .125 .43066407 .13476563 .4404297 .14453125 .44986979 .15445964 .45898438 .16455078 .46809898 .17464192 .4765625 .1842448 .484375 .19335938 .4921875 .20247396 .4986979 .20963542 .50390627 .21484375Z"/>
<path id="font_2_101" d="M.2890625 .15527344C.2825521 .13053386 .27376304 .107421878 .2626953 .0859375 .2516276 .064453128 .23844402 .045898439 .22314453 .030273438 .20784505 .0146484379 .19059246 .0024414063 .17138672-.0063476564 .15218099-.015136719 .13118489-.01953125 .10839844-.01953125 .08170573-.01953125 .060709638-.013834636 .045410158-.0024414063 .030110678 .008951823 .018717448 .023111979 .011230469 .040039064 .0037434896 .056966146-.00081380209 .075520839-.0024414063 .095703128-.0040690104 .115885417-.0048828127 .13476563-.0048828127 .15234375-.0048828127 .16471355-.0034179688 .17838542-.00048828127 .19335938 .0024414063 .20833333 .0065104167 .22363281 .01171875 .23925781 .016927084 .2548828 .02360026 .2705078 .03173828 .2861328 .0398763 .3017578 .049479169 .31608073 .060546876 .32910157 .064453128 .34016929 .07047526 .3499349 .07861328 .35839845 .086751308 .36686198 .096191409 .3738607 .106933597 .37939454 .11767578 .38492839 .12923177 .38916017 .14160156 .39208985 .15397136 .39501954 .16601563 .39648438 .17773438 .39648438 .1796875 .39648438 .18147786 .39615885 .18310547 .3955078 .18473308 .39485679 .18652344 .39420573 .18847656 .3935547 .19694011 .39290367 .20751953 .38964845 .22021485 .38378907 .23291016 .3779297 .24527996 .36914063 .25732423 .35742188 .2693685 .34570313 .2796224 .33089195 .28808595 .31298829 .29654948 .29508464 .30078126 .2734375 .30078126 .24804688 .30078126 .24283855 .30045573 .23649089 .2998047 .2290039 .29915367 .22151692 .2985026 .21516927 .29785157 .20996094 .31282554 .21582031 .32845054 .22298177 .34472657 .23144531 .3610026 .23990886 .37679038 .24886067 .39208985 .25830079 .4073893 .26774089 .42154948 .27734376 .4345703 .28710938 .44759117 .296875 .4580078 .30566407 .4658203 .31347657 .47233073 .31933595 .4778646 .32259117 .48242188 .3232422 .48697917 .32389323 .49023438 .32259117 .4921875 .31933595 .49414063 .31608073 .49446617 .31152345 .49316407 .30566407 .49186198 .2998047 .48828126 .29329429 .48242188 .2861328 .47916667 .28222657 .47086589 .27441407 .45751954 .2626953 .4441732 .25097657 .4283854 .23828125 .41015626 .22460938 .3919271 .2109375 .3720703 .19759114 .35058595 .18457031 .32910157 .17154949 .30859376 .16178386 .2890625 .15527344M.12402344 .30371095C.12207031 .29785157 .12109375 .29166667 .12109375 .28515626 .12109375 .2747396 .12174479 .26383464 .123046878 .2524414 .12434896 .24104817 .12760417 .23079427 .1328125 .22167969 .13802083 .21256511 .14632161 .20491536 .15771485 .19873047 .16910808 .19254558 .18489583 .18945313 .20507813 .18945313 .20833333 .18945313 .21158855 .18961589 .21484375 .1899414 .21809896 .19026692 .22135417 .1907552 .22460938 .19140625 .2265625 .1998698 .22835286 .20751953 .22998047 .21435547 .23160808 .2211914 .23242188 .22721355 .23242188 .23242188 .23372396 .24479167 .23372396 .25748698 .23242188 .2705078 .2311198 .28352867 .22867839 .29541017 .22509766 .30615235 .22151692 .31689454 .21695964 .3256836 .21142578 .33251954 .20589192 .33935548 .19921875 .34277345 .19140625 .34277345 .17903646 .34277345 .16715496 .33935548 .15576172 .33251954 .14436849 .3256836 .13378906 .31608073 .12402344 .30371095M.061523439 .13183594C.061523439 .12011719 .06217448 .108561199 .06347656 .09716797 .06477865 .08577474 .06738281 .075683597 .07128906 .06689453 .07519531 .05810547 .08040365 .05094401 .08691406 .045410158 .09342448 .0398763 .10188802 .037109376 .11230469 .037109376 .12402344 .037109376 .13476563 .0398763 .14453125 .045410158 .15429688 .05094401 .16308594 .05810547 .17089844 .06689453 .17871094 .075683597 .18570964 .08577474 .19189453 .09716797 .19807942 .108561199 .20345052 .12044271 .20800781 .1328125 .20345052 .13216146 .19905599 .13167317 .19482422 .13134766 .19059246 .13102214 .18587239 .13085938 .18066406 .13085938 .15592449 .13085938 .13460286 .1381836 .11669922 .15283203 .09879557 .16748047 .08496094 .18619792 .07519531 .20898438 .07128906 .1953125 .06803385 .18196614 .06542969 .16894531 .06282552 .15592449 .061523439 .14355469 .061523439 .13183594Z"/>
<path id="font_2_90" d="M.31054688 .18652344C.30729167 .16634114 .30419923 .14713542 .30126954 .12890625 .29833985 .110677089 .29654948 .09602865 .29589845 .08496094 .2952474 .0686849 .2981771 .056966146 .3046875 .049804689 .3111979 .04264323 .31835938 .0390625 .32617188 .0390625 .33528648 .0390625 .34651695 .043619794 .35986329 .052734376 .37320964 .061848958 .38736979 .07324219 .40234376 .08691406 .41731773 .10058594 .43229167 .1155599 .44726563 .13183594 .4622396 .14811199 .47607423 .16357422 .48876954 .17822266 .50146487 .1928711 .51220706 .20572917 .5209961 .21679688 .52978518 .22786458 .5358073 .23502605 .5390625 .23828125 .54296877 .2421875 .5470378 .24446614 .55126956 .24511719 .5555013 .24576824 .55891928 .24511719 .56152346 .24316406 .5641276 .24121094 .5654297 .2376302 .5654297 .23242188 .5654297 .22721355 .5628255 .22070313 .5576172 .21289063 .5498047 .20052083 .53971359 .18603516 .52734377 .1694336 .51497396 .15283203 .50130209 .13574219 .48632813 .11816406 .47135417 .10058594 .4555664 .083333339 .43896485 .06640625 .42236329 .049479169 .40576173 .034505208 .38916017 .021484375 .3725586 .008463542 .35660807-.0021158856 .3413086-.010253906 .32600913-.018391928 .31217448-.022460938 .2998047-.022460938 .2906901-.022460938 .2820638-.019856772 .27392579-.0146484379 .26578776-.0094401049 .25846354-.0026041668 .25195313 .005859375 .2454427 .014322917 .24039714 .023763022 .2368164 .034179689 .23323567 .044596357 .23177083 .05501302 .23242188 .06542969 .23307292 .06998698 .23404949 .07779948 .23535156 .08886719 .20800781 .05826823 .1805013 .034016927 .15283203 .016113282 .12516277-.0017903646 .09863281-.0107421879 .07324219-.0107421879 .0641276-.0107421879 .05436198-.008463542 .043945314-.00390625 .033528646 .0006510417 .024251303 .0081380209 .016113282 .018554688 .007975261 .028971354 .0013020834 .04264323-.00390625 .059570314-.009114583 .0764974-.011067708 .09700521-.009765625 .12109375-.0078125 .15885417-.00032552085 .19466146 .0126953129 .22851563 .025716147 .26236979 .04215495 .29182945 .06201172 .31689454 .08186849 .34195964 .10432943 .3618164 .12939453 .37646485 .15445964 .39111329 .1796875 .3984375 .20507813 .3984375 .21614583 .3984375 .22623699 .39567057 .23535156 .39013673 .24446614 .38460288 .25227867 .3774414 .25878907 .36865235 .26529948 .35986329 .27067057 .3502604 .27490235 .33984376 .27913413 .3294271 .28222657 .31966148 .2841797 .31054688 .28873698 .3294271 .29296876 .34798179 .296875 .36621095 .30078126 .3844401 .3046875 .40169273 .30859376 .41796876 .31510417 .44205729 .3219401 .46809898 .32910157 .49609376 .33561198 .5201823 .34309898 .54785159 .3515625 .57910159 .36002604 .61035159 .36946617 .6432292 .3798828 .6777344 .38639323 .6829427 .39257813 .68684896 .3984375 .6894531 .40429688 .6920573 .40983073 .69401046 .41503907 .6953125 .42089845 .6972656 .42643229 .6982422 .43164063 .6982422 .43815104 .6982422 .4440104 .6974284 .44921876 .6958008 .4544271 .69417318 .45882163 .6899414 .46240235 .68310549 .46598307 .67626956 .46842448 .6660156 .46972657 .65234377 .47102867 .6386719 .47102867 .6201172 .46972657 .5966797 .46842448 .5680339 .4633789 .5367839 .45458985 .5029297 .44580079 .46907554 .43424479 .43408204 .41992188 .39794923 .40559898 .3618164 .38916017 .3256836 .37060548 .28955079 .35205079 .25341798 .33203126 .21907552 .31054688 .18652344M.2529297 .17382813C.25553385 .18619792 .25797526 .1985677 .2602539 .2109375 .26253257 .2233073 .26529948 .23600261 .2685547 .24902344 .2672526 .24837239 .26611329 .24772136 .26513673 .24707031 .26416017 .24641927 .26302085 .24576824 .26171876 .24511719 .25455729 .24186199 .24967449 .24202474 .24707031 .24560547 .24446614 .2491862 .24316406 .2548828 .24316406 .2626953 .24316406 .26660157 .24283855 .27360026 .2421875 .2836914 .24153646 .29378257 .2397461 .30419923 .2368164 .3149414 .23388672 .3256836 .22949219 .3351237 .22363281 .34326173 .21777344 .35139976 .20963542 .35546876 .19921875 .35546876 .1842448 .35546876 .16894531 .347819 .15332031 .33251954 .13769531 .31722007 .123046878 .29866538 .109375 .27685548 .095703128 .25504557 .0843099 .23177083 .07519531 .20703125 .06608073 .18229167 .060872396 .16015625 .059570314 .140625 .05826823 .109375 .06217448 .08691406 .07128906 .07324219 .08040365 .059570314 .09277344 .052734376 .10839844 .052734376 .12011719 .052734376 .13297527 .057291669 .14697266 .06640625 .16097005 .075520839 .17464192 .08658854 .18798828 .099609378 .20133464 .11263021 .21370442 .12597656 .22509766 .13964844 .23649089 .15332031 .24576824 .16471355 .2529297 .17382813Z"/>
<path id="font_3_225" d="M1.074997 .69999697 .8390045 0H.7610016L.55599978 .5970001 .3500061 0H.272995L.037002565 .69999697H.11300659L.31500245 .0980072 .5240021 .69999697H.5930023L.798996 .09500122 1.0039978 .69999697H1.074997Z"/>
<path id="font_3_483" d="M.09899902 .526001H.16999817V0H.09899902V.526001M.1349945 .64100649C.12032572 .64100649 .10799154 .6460063 .09799194 .65600588 .08799235 .66600546 .08299255 .67800399 .08299255 .69200137 .08299255 .7053375 .08799235 .71700546 .09799194 .727005 .10799154 .7370046 .12032572 .7420044 .1349945 .7420044 .14966329 .7420044 .16199748 .73716738 .17199707 .7274933 .18199666 .7178294 .18699646 .70632937 .18699646 .69299319 .18699646 .67833456 .18199666 .66600546 .17199707 .65600588 .16199748 .6460063 .14966329 .64100649 .1349945 .64100649Z"/>
<path id="font_3_590" d="M.37600709 .03199768C.3626709 .020004273 .34616599 .010838826 .3264923 .004501343 .30682884-.001836141 .28633119-.005004883 .2649994-.005004883 .21566265-.005004883 .17765808 .008326213 .15098572 .034988405 .124323528 .061660768 .11099243 .09932963 .11099243 .147995V.46600343H.016998291V.526001H.11099243V.64100649H.18200684V.526001H.34199525V.46600343H.18200684V.1519928C.18200684 .120661418 .18983968 .09682719 .20550537 .08049011 .22117107 .06416321 .2436676 .055999757 .272995 .055999757 .2876638 .055999757 .301829 .05833435 .31549073 .06300354 .3291626 .06767273 .34099833 .07433573 .35099793 .08299255L.37600709 .03199768Z"/>
<path id="font_3_477" d="M.3670044 .5299988C.43300376 .5299988 .48549906 .5108287 .52449038 .4724884 .5634918 .43415834 .58299258 .37832643 .58299258 .30499269V0H.5119934V.29800416C.5119934 .3526713 .49832664 .39433799 .47099305 .42300416 .44365946 .45167033 .4046631 .46600343 .3540039 .46600343 .29733277 .46600343 .25249736 .44916789 .21949768 .41549684 .186498 .38183595 .16999817 .3353373 .16999817 .27600099V0H.09899902V.7420044H.16999817V.43400575C.18933614 .46466575 .21600342 .48832704 .25 .5049896 .28399659 .5216624 .32299806 .5299988 .3670044 .5299988Z"/>
<path id="font_3_3" d="M0 0Z"/>
<path id="font_3_598" d="M.57299807 .526001V0H.5050049V.09599304C.4863383 .06400045 .46066795 .03916931 .42799378 .021499634 .3953298 .003829956 .3579966-.005004883 .31599427-.005004883 .24732971-.005004883 .19316101 .014160156 .15348816 .052490236 .11382548 .09083048 .09399414 .14699809 .09399414 .22099304V.526001H.16499329V.22799683C.16499329 .17266846 .17866008 .13067119 .20599365 .102005008 .23332723 .07333883 .2723287 .059005739 .32299806 .059005739 .37833659 .059005739 .42200218 .07583618 .45399476 .10949707 .48599754 .14316814 .5019989 .19000244 .5019989 .25V.526001H.57299807Z"/>
<path id="font_3_576" d="M.2400055-.005004883C.19733174-.005004883 .15649414 .001159668 .117492679 .0134887699 .07850138 .025828043 .04800415 .041330976 .026000977 .05999756L.057998659 .115997318C.08000183 .09866333 .107666019 .084498088 .14099121 .07350159 .17432659 .06250509 .20899455 .057006837 .24499512 .057006837 .29299928 .057006837 .32850138 .06450399 .35150147 .07949829 .37450157 .09450277 .3860016 .11567179 .3860016 .14300537 .3860016 .16233318 .3796692 .17749532 .3670044 .18849182 .3543396 .19949849 .33833824 .20783489 .31900025 .21350098 .29966227 .21916707 .27399699 .22466533 .2420044 .22999573 .19933065 .23800151 .16499329 .24617005 .13899231 .25450135 .1130015 .26283265 .09083557 .2769979 .07249451 .29699708 .054163618 .31699626 .04499817 .34466554 .04499817 .38000489 .04499817 .42400108 .06332906 .45999656 .099990848 .48799134 .1366628 .5159963 .18766785 .5299988 .25300599 .5299988 .28700257 .5299988 .32099916 .52549746 .35499574 .51649478 .38900248 .50750228 .41700236 .4956716 .43899537 .4810028L.40800477 .42399598C.3646698 .45399476 .31300355 .46899415 .25300599 .46899415 .20766704 .46899415 .17349752 .46099345 .15049744 .44499208 .12749736 .42900086 .115997318 .40800477 .115997318 .38200379 .115997318 .3620046 .12249756 .3460032 .13549805 .33399964 .14849854 .32199607 .16466268 .31316123 .18399048 .30749513 .20332845 .301829 .23000081 .2959951 .26400758 .2899933 .30599977 .28199769 .33966065 .27399699 .36499024 .2659912 .39033 .2579956 .41199748 .24432881 .42999269 .22499085 .44799806 .20566304 .45700074 .17900086 .45700074 .14500427 .45700074 .09900411 .4378306 .0625 .39949037 .035491945 .36116029 .00849406 .30799867-.005004883 .2400055-.005004883Z"/>
<path id="font_3_629" d="M.54100039 .526001 .27799989-.06300354C.2566681-.11233012 .23199971-.14732869 .20399475-.16799927 .17599996-.18866985 .14233399-.19900513 .102996829-.19900513 .07766724-.19900513 .054000856-.19500225 .03199768-.18699646 .009994507-.17900086-.009002686-.16700237-.024993897-.15100098L.0079956059-.0980072C.03466797-.124669399 .06667074-.13800049 .104003909-.13800049 .1280009-.13800049 .14849854-.1313324 .16549683-.117996219 .18249512-.104670207 .19832866-.08200582 .21299744-.05000305L.23599243 .0010070801 .0010070801 .526001H.07499695L.272995 .07899475 .47099305 .526001H.54100039Z"/>
<path id="font_3_530" d="M.31399537-.005004883C.26333619-.005004883 .2176717 .0064951579 .17700196 .02949524 .1363322 .05249532 .10432943 .08433024 .08099365 .125 .05766805 .16566976 .04600525 .21166992 .04600525 .2630005 .04600525 .31433106 .05766805 .3603312 .08099365 .40100099 .10432943 .44167076 .1363322 .4733378 .17700196 .4960022 .2176717 .51866659 .26333619 .5299988 .31399537 .5299988 .3646647 .5299988 .4103292 .51866659 .45098878 .4960022 .49165855 .4733378 .52349349 .44167076 .54649356 .40100099 .5694936 .3603312 .58099368 .31433106 .58099368 .2630005 .58099368 .21166992 .5694936 .16566976 .54649356 .125 .52349349 .08433024 .49165855 .05249532 .45098878 .02949524 .4103292 .0064951579 .3646647-.005004883 .31399537-.005004883M.31399537 .057998659C.35132853 .057998659 .38482667 .0664978 .41448976 .083496097 .444163 .100494388 .46733094 .12465922 .48399354 .1559906 .5006663 .18733216 .5090027 .22300212 .5090027 .2630005 .5090027 .30299888 .5006663 .33866374 .48399354 .36999513 .46733094 .40133668 .444163 .4255066 .41448976 .44250489 .38482667 .45950318 .35132853 .46800233 .31399537 .46800233 .2766622 .46800233 .24316406 .45950318 .21350098 .44250489 .18383789 .4255066 .16050212 .40133668 .14349365 .36999513 .12649536 .33866374 .117996219 .30299888 .117996219 .2630005 .117996219 .22300212 .12649536 .18733216 .14349365 .1559906 .16050212 .12465922 .18383789 .100494388 .21350098 .083496097 .24316406 .0664978 .2766622 .057998659 .31399537 .057998659Z"/>
<path id="font_3_568" d="M.16700745 .42300416C.18367005 .45833335 .20850118 .4849955 .24150086 .5029907 .27450053 .5209961 .31533305 .5299988 .3639984 .5299988V.46099855L.34700013 .46200563C.29167176 .46200563 .24833679 .44500224 .21699524 .41099549 .18566387 .3769989 .16999817 .32933555 .16999817 .26800538V0H.09899902V.526001H.16700745V.42300416Z"/>
<path id="font_3_442" d="M.55700686 .24099732H.117004398C.1210022 .18633016 .14199829 .14216106 .17999268 .10848999 .21799724 .0748291 .26600138 .057998659 .32400514 .057998659 .3566691 .057998659 .38666789 .0638326 .41400147 .07550049 .44133506 .08716837 .46500144 .10433451 .4850006 .1269989L.5249939 .08099365C.5016683 .05299886 .47250367 .031667074 .4375 .016998291 .40249635 .0023295086 .3639984-.005004883 .32200624-.005004883 .26800028-.005004883 .22016399 .0064951579 .17849732 .02949524 .13683065 .05249532 .10432943 .08433024 .08099365 .125 .05766805 .16566976 .04600525 .21166992 .04600525 .2630005 .04600525 .31433106 .057169599 .3603312 .07949829 .40100099 .10183716 .44167076 .13250225 .4733378 .17149353 .4960022 .210495 .51866659 .2543284 .5299988 .30299378 .5299988 .3516693 .5299988 .39533998 .51866659 .43400575 .4960022 .4726715 .4733378 .5030009 .4418386 .5249939 .40150453 .5469971 .36117045 .55799868 .31500245 .55799868 .2630005L.55700686 .24099732M.30299378 .46899415C.2523346 .46899415 .20983379 .45282493 .17549134 .42048646 .14115906 .38815818 .121663417 .34599815 .117004398 .29400636H.4900055C.4853363 .34599815 .46583558 .38815818 .4315033 .42048646 .39717103 .45282493 .3543345 .46899415 .30299378 .46899415Z"/>
<path id="font_3_517" d="M.7550049 .5299988C.8210042 .5299988 .87283328 .5109965 .91049197 .47299195 .9481608 .43499757 .96699526 .3789978 .96699526 .30499269V0H.8959961V.29800416C.8959961 .3526713 .88282778 .39433799 .8564911 .42300416 .8301646 .45167033 .79299929 .46600343 .7449951 .46600343 .69032797 .46600343 .6473287 .44916789 .6159973 .41549684 .58466598 .38183595 .56900027 .3353373 .56900027 .27600099V0H.4980011V.29800416C.4980011 .3526713 .48483277 .39433799 .4584961 .42300416 .4321696 .45167033 .39466859 .46600343 .34599305 .46600343 .29199729 .46600343 .24916585 .44916789 .21749878 .41549684 .18583171 .38183595 .16999817 .3353373 .16999817 .27600099V0H.09899902V.526001H.16700745V.42999269C.18567403 .46199546 .21166992 .48666383 .24499512 .5039978 .27833048 .5213318 .31666566 .5299988 .3600006 .5299988 .4039968 .5299988 .44215904 .52066549 .4744873 .5019989 .50682577 .4833323 .53099569 .45566813 .5469971 .41900636 .566335 .45366416 .59416708 .4808248 .63049319 .5004883 .6668294 .5201619 .7083333 .5299988 .7550049 .5299988Z"/>
<path id="font_3_399" d="M.28300477 .5299988C.3516693 .5299988 .4043325 .51283267 .44099427 .47850038 .47766624 .4441681 .4960022 .39333598 .4960022 .32600404V0H.42799378V.08200073C.41200257 .054667158 .38850404 .03333028 .35749818 .017990113 .32650248 .0026601155 .28966777-.005004883 .24699402-.005004883 .18832906-.005004883 .1416626 .008992513 .10699463 .036987306 .07232666 .06499227 .054992677 .101994838 .054992677 .147995 .054992677 .19266255 .07115682 .22866313 .10348511 .2559967 .13582357 .2833303 .18732707 .29699708 .2579956 .29699708H.42500306V.32899476C.42500306 .3743337 .41233317 .40883384 .3869934 .43249513 .36166383 .4561666 .32466636 .46800233 .27600099 .46800233 .2426656 .46800233 .21066284 .462499 .17999268 .4514923 .14933269 .44049583 .1230011 .42533366 .100997928 .40600587L.069000247 .45899964C.09566244 .48166404 .12766011 .49916078 .16499329 .51148989 .20232646 .52382919 .24166362 .5299988 .28300477 .5299988M.2579956 .050994874C.297994 .050994874 .33232627 .06016032 .36099244 .07849121 .3896688 .096832279 .41100566 .12333679 .42500306 .15800476V.2440033H.2599945C.16999817 .2440033 .125 .21266683 .125 .1499939 .125 .1193339 .13666789 .09516907 .16000366 .07749939 .18333943 .059829713 .21600342 .050994874 .2579956 .050994874Z"/>
<path id="font_3_519" d="M.3670044 .5299988C.43300376 .5299988 .48549906 .5108287 .52449038 .4724884 .5634918 .43415834 .58299258 .37832643 .58299258 .30499269V0H.5119934V.29800416C.5119934 .3526713 .49832664 .39433799 .47099305 .42300416 .44365946 .45167033 .4046631 .46600343 .3540039 .46600343 .29733277 .46600343 .25249736 .44916789 .21949768 .41549684 .186498 .38183595 .16999817 .3353373 .16999817 .27600099V0H.09899902V.526001H.16700745V.42900086C.18633525 .46100364 .21316529 .48583476 .24749756 .50349429 .28182984 .52116397 .32166545 .5299988 .3670044 .5299988Z"/>
<path id="font_3_508" d="M.09899902 .7420044H.16999817V0H.09899902V.7420044Z"/>
</defs>
<g clip-path="url(#clip_0)">
<path transform="matrix(.75,0,0,.75,0,0)" d="M0 0H292V114H0Z" fill="#ffffff"/>
</g>
<g clip-path="url(#clip_1)">
<use data-text="F" xlink:href="#font_2_60" transform="matrix(45.704999,0,0,-45.704999,15.0159649,52.013948)" fill="#00ae4b"/>
<use data-text="r" xlink:href="#font_2_104" transform="matrix(45.704999,0,0,-45.704999,41.79514,52.013948)" fill="#00ae4b"/>
<use data-text="e" xlink:href="#font_2_91" transform="matrix(45.704999,0,0,-45.704999,60.362035,52.013948)" fill="#00ae4b"/>
<use data-text="s" xlink:href="#font_2_105" transform="matrix(45.704999,0,0,-45.704999,77.366809,52.013948)" fill="#00ae4b"/>
<use data-text="h" xlink:href="#font_2_94" transform="matrix(45.704999,0,0,-45.704999,93.43431,52.013948)" fill="#00ae4b"/>
<use data-text="F" xlink:href="#font_2_60" transform="matrix(45.704999,0,0,-45.704999,114.730808,52.013948)" fill="#2a4c33"/>
<use data-text="o" xlink:href="#font_2_101" transform="matrix(45.704999,0,0,-45.704999,141.50998,52.013948)" fill="#2a4c33"/>
<use data-text="o" xlink:href="#font_2_101" transform="matrix(45.704999,0,0,-45.704999,159.49666,52.013948)" fill="#2a4c33"/>
<use data-text="d" xlink:href="#font_2_90" transform="matrix(45.704999,0,0,-45.704999,177.48334,52.013948)" fill="#2a4c33"/>
<use data-text="W" xlink:href="#font_3_225" transform="matrix(10.17,0,0,-10.17,23.009465,74.311969)" fill="#919b9b"/>
<use data-text="i" xlink:href="#font_3_483" transform="matrix(10.17,0,0,-10.17,35.488115,74.311969)" fill="#919b9b"/>
<use data-text="t" xlink:href="#font_3_590" transform="matrix(10.17,0,0,-10.17,39.411867,74.311969)" fill="#919b9b"/>
<use data-text="h" xlink:href="#font_3_477" transform="matrix(10.17,0,0,-10.17,44.727567,74.311969)" fill="#919b9b"/>
<use data-text=" " xlink:href="#font_3_3" transform="matrix(10.17,0,0,-10.17,52.796678,74.311969)" fill="#919b9b"/>
<use data-text="u" xlink:href="#font_3_598" transform="matrix(10.17,0,0,-10.17,56.64931,74.311969)" fill="#919b9b"/>
<use data-text="s" xlink:href="#font_3_576" transform="matrix(10.17,0,0,-10.17,64.67778,74.311969)" fill="#919b9b"/>
<use data-text=" " xlink:href="#font_3_3" transform="matrix(10.17,0,0,-10.17,70.83678,74.311969)" fill="#919b9b"/>
<use data-text="y" xlink:href="#font_3_629" transform="matrix(10.17,0,0,-10.17,74.68941,74.311969)" fill="#919b9b"/>
<use data-text="o" xlink:href="#font_3_530" transform="matrix(10.17,0,0,-10.17,81.38689,74.311969)" fill="#919b9b"/>
<use data-text="u" xlink:href="#font_3_598" transform="matrix(10.17,0,0,-10.17,88.948,74.311969)" fill="#919b9b"/>
<use data-text=" " xlink:href="#font_3_3" transform="matrix(10.17,0,0,-10.17,96.97647,74.311969)" fill="#919b9b"/>
<use data-text="r" xlink:href="#font_3_568" transform="matrix(10.17,0,0,-10.17,100.8291,74.311969)" fill="#919b9b"/>
<use data-text="e" xlink:href="#font_3_442" transform="matrix(10.17,0,0,-10.17,106.093997,74.311969)" fill="#919b9b"/>
<use data-text="m" xlink:href="#font_3_517" transform="matrix(10.17,0,0,-10.17,113.42142,74.311969)" fill="#919b9b"/>
<use data-text="a" xlink:href="#font_3_399" transform="matrix(10.17,0,0,-10.17,125.392047,74.311969)" fill="#919b9b"/>
<use data-text="i" xlink:href="#font_3_483" transform="matrix(10.17,0,0,-10.17,132.57723,74.311969)" fill="#919b9b"/>
<use data-text="n" xlink:href="#font_3_519" transform="matrix(10.17,0,0,-10.17,136.50098,74.311969)" fill="#919b9b"/>
<use data-text=" " xlink:href="#font_3_3" transform="matrix(10.17,0,0,-10.17,144.5701,74.311969)" fill="#919b9b"/>
<use data-text="h" xlink:href="#font_3_477" transform="matrix(10.17,0,0,-10.17,148.42273,74.311969)" fill="#919b9b"/>
<use data-text="e" xlink:href="#font_3_442" transform="matrix(10.17,0,0,-10.17,156.49184,74.311969)" fill="#919b9b"/>
<use data-text="a" xlink:href="#font_3_399" transform="matrix(10.17,0,0,-10.17,163.81926,74.311969)" fill="#919b9b"/>
<use data-text="l" xlink:href="#font_3_508" transform="matrix(10.17,0,0,-10.17,171.00443,74.311969)" fill="#919b9b"/>
<use data-text="t" xlink:href="#font_3_590" transform="matrix(10.17,0,0,-10.17,174.92819,74.311969)" fill="#919b9b"/>
<use data-text="h" xlink:href="#font_3_477" transform="matrix(10.17,0,0,-10.17,180.2439,74.311969)" fill="#919b9b"/>
<use data-text="y" xlink:href="#font_3_629" transform="matrix(10.17,0,0,-10.17,188.313,74.311969)" fill="#919b9b"/>
</g>
</svg>
